<svg xmlns="http://www.w3.org/2000/svg" xmlns:xlink="http://www.w3.org/1999/xlink" width="500" zoomAndPan="magnify" viewBox="0 0 375 374.999991" height="500" preserveAspectRatio="xMidYMid meet" version="1.0"><defs><clipPath id="f489d64de1"><path d="M 23 15.402344 L 365.351562 15.402344 L 365.351562 357 L 23 357 Z M 23 15.402344 " clip-rule="nonzero"/></clipPath></defs><path fill="#ecf6ff" d="M 113.75 116.8125 L 113.75 255.234375 C 113.78125 263.425781 120.433594 270.054688 128.628906 270.054688 L 133.683594 270.054688 L 133.683594 101.992188 L 128.628906 101.992188 C 120.433594 101.992188 113.78125 108.617188 113.75 116.8125 " fill-opacity="1" fill-rule="nonzero"/><path fill="#ecf6ff" d="M 240.917969 234.253906 C 240.917969 223.902344 247.925781 214.863281 257.949219 212.273438 L 257.949219 116.8125 C 257.921875 109.355469 252.359375 103.078125 244.957031 102.160156 L 244.957031 172.257812 C 244.964844 174.742188 243.324219 176.925781 240.933594 177.609375 C 238.542969 178.296875 235.992188 177.308594 234.683594 175.199219 L 222.136719 155.164062 L 209.421875 175.199219 C 208.089844 177.257812 205.574219 178.199219 203.21875 177.523438 C 200.863281 176.84375 199.234375 174.703125 199.203125 172.257812 L 199.203125 101.992188 L 144.789062 101.992188 L 144.789062 270.054688 L 242.957031 270.054688 C 250.84375 270.1875 257.449219 264.101562 257.949219 256.230469 C 247.925781 253.644531 240.917969 244.605469 240.917969 234.253906 " fill-opacity="1" fill-rule="nonzero"/><path fill="#ecf6ff" d="M 221.96875 139.011719 C 223.890625 139.007812 225.671875 139.992188 226.691406 141.621094 L 233.683594 152.722656 L 233.683594 101.992188 L 210.308594 101.992188 L 210.308594 152.722656 L 217.25 141.621094 C 218.269531 139.992188 220.050781 139.007812 221.96875 139.011719 " fill-opacity="1" fill-rule="nonzero"/><g clip-path="url(#f489d64de1)"><path fill="#ecf6ff" d="M 255.992188 334.726562 C 195.824219 359.640625 126.5625 345.871094 80.511719 299.832031 C 34.457031 253.800781 20.679688 184.574219 45.605469 124.425781 C 70.527344 64.28125 129.246094 25.0625 194.371094 25.0625 C 283.304688 25.0625 355.398438 97.128906 355.398438 186.019531 C 355.398438 251.121094 316.164062 309.8125 255.992188 334.726562 Z M 194.371094 15.40625 C 125.089844 15.40625 63.191406 56.746094 36.679688 120.730469 C 10.164062 184.710938 24.683594 257.695312 73.679688 306.664062 C 105.917969 338.890625 148.789062 356.644531 194.402344 356.644531 C 194.40625 356.644531 194.40625 356.644531 194.410156 356.644531 C 216.898438 356.644531 238.871094 352.269531 259.691406 343.648438 C 323.703125 317.144531 365.058594 255.277344 365.058594 186.023438 C 365.058594 91.941406 288.488281 15.40625 194.371094 15.40625 " fill-opacity="1" fill-rule="nonzero"/></g><path fill="#ecf6ff" d="M 267.800781 223.484375 C 263.441406 221.683594 258.425781 222.675781 255.089844 226.011719 C 251.757812 229.347656 250.761719 234.359375 252.5625 238.714844 C 254.367188 243.070312 258.617188 245.90625 263.335938 245.90625 C 266.429688 245.90625 269.394531 244.679688 271.582031 242.496094 C 273.769531 240.3125 275 237.34375 275 234.253906 C 275 229.539062 272.15625 225.289062 267.800781 223.484375 " fill-opacity="1" fill-rule="nonzero"/><path fill="#ecf6ff" d="M 268.773438 256.289062 C 268.242188 270.160156 256.847656 281.136719 242.957031 281.152344 L 128.628906 281.152344 C 114.300781 281.152344 102.675781 269.558594 102.640625 255.234375 L 102.640625 116.8125 C 102.675781 102.488281 114.300781 90.890625 128.628906 90.890625 L 242.957031 90.890625 C 257.265625 90.917969 268.859375 102.507812 268.890625 116.8125 L 268.890625 212.273438 L 268.773438 212.273438 C 278.9375 214.738281 286.089844 223.832031 286.089844 234.28125 C 286.089844 244.730469 278.9375 253.824219 268.773438 256.289062 Z M 251.746094 47.574219 C 195.722656 24.378906 131.242188 37.199219 88.363281 80.058594 C 45.488281 122.914062 32.660156 187.371094 55.863281 243.371094 C 79.070312 299.371094 133.734375 335.878906 194.371094 335.878906 C 277.167969 335.878906 344.292969 268.785156 344.292969 186.019531 C 344.292969 125.410156 307.769531 70.769531 251.746094 47.574219 " fill-opacity="1" fill-rule="nonzero"/></svg>